REM DIRINDEX 1\2\4,1\2\5,1\2\6,1\3\7,1\3\8,1\3\9,1\3\10
REM DIRNAME cjc057,folder01,folder02,folder03,folder04,folder05,folder06,folder07,folder08,folder09
TITLE ""
FILE "b_056.mp3" MP3
  TRACK 01 AUDIO
    TITLE "0:"
    INDEX 01 00:00:00
  TRACK 02 AUDIO
    TITLE "7:cjc057_05822"
    INDEX 01 00:00:09
  TRACK 03 AUDIO
    TITLE "0:"
    INDEX 01 00:01:42
  TRACK 04 AUDIO
    TITLE "8:cjc057_05823"
    INDEX 01 00:01:71
  TRACK 05 AUDIO
    TITLE "0:"
    INDEX 01 00:03:19
  TRACK 06 AUDIO
    TITLE "9:cjc057_05824"
    INDEX 01 00:03:59
  TRACK 07 AUDIO
    TITLE "0:"
    INDEX 01 00:08:21
  TRACK 08 AUDIO
    TITLE "7:cjc057_05825"
    INDEX 01 00:09:28
  TRACK 09 AUDIO
    TITLE "0:"
    INDEX 01 00:10:57
  TRACK 10 AUDIO
    TITLE "8:cjc057_05826"
    INDEX 01 00:11:11
  TRACK 11 AUDIO
    TITLE "0:"
    INDEX 01 00:13:41
  TRACK 12 AUDIO
    TITLE "9:cjc057_05827"
    INDEX 01 00:14:09
  TRACK 13 AUDIO
    TITLE "0:"
    INDEX 01 00:16:63
  TRACK 14 AUDIO
    TITLE "7:cjc057_05828"
    INDEX 01 00:17:67
  TRACK 15 AUDIO
    TITLE "0:"
    INDEX 01 00:19:16
  TRACK 16 AUDIO
    TITLE "8:cjc057_05829"
    INDEX 01 00:19:46
  TRACK 17 AUDIO
    TITLE "0:"
    INDEX 01 00:20:51
  TRACK 18 AUDIO
    TITLE "9:cjc057_05830"
    INDEX 01 00:21:15
  TRACK 19 AUDIO
    TITLE "0:"
    INDEX 01 00:24:24
  TRACK 20 AUDIO
    TITLE "7:cjc057_05831"
    INDEX 01 00:25:27
  TRACK 21 AUDIO
    TITLE "0:"
    INDEX 01 00:26:32
  TRACK 22 AUDIO
    TITLE "8:cjc057_05832"
    INDEX 01 00:26:60
  TRACK 23 AUDIO
    TITLE "0:"
    INDEX 01 00:29:38
  TRACK 24 AUDIO
    TITLE "9:cjc057_05833"
    INDEX 01 00:30:01
  TRACK 25 AUDIO
    TITLE "0:"
    INDEX 01 00:32:68
  TRACK 26 AUDIO
    TITLE "7:cjc057_05834"
    INDEX 01 00:33:73
  TRACK 27 AUDIO
    TITLE "0:"
    INDEX 01 00:35:19
  TRACK 28 AUDIO
    TITLE "8:cjc057_05835"
    INDEX 01 00:35:47
  TRACK 29 AUDIO
    TITLE "0:"
    INDEX 01 00:37:48
  TRACK 30 AUDIO
    TITLE "9:cjc057_05836"
    INDEX 01 00:38:18
  TRACK 31 AUDIO
    TITLE "0:"
    INDEX 01 00:41:24
  TRACK 32 AUDIO
    TITLE "7:cjc057_05837"
    INDEX 01 00:42:29
  TRACK 33 AUDIO
    TITLE "0:"
    INDEX 01 00:43:52
  TRACK 34 AUDIO
    TITLE "8:cjc057_05838"
    INDEX 01 00:44:05
  TRACK 35 AUDIO
    TITLE "0:"
    INDEX 01 00:45:14
  TRACK 36 AUDIO
    TITLE "9:cjc057_05839"
    INDEX 01 00:45:51
  TRACK 37 AUDIO
    TITLE "0:"
    INDEX 01 00:48:38
  TRACK 38 AUDIO
    TITLE "7:cjc057_05840"
    INDEX 01 00:49:45
  TRACK 39 AUDIO
    TITLE "0:"
    INDEX 01 00:51:09
  TRACK 40 AUDIO
    TITLE "8:cjc057_05841"
    INDEX 01 00:51:32
  TRACK 41 AUDIO
    TITLE "0:"
    INDEX 01 00:52:49
  TRACK 42 AUDIO
    TITLE "9:cjc057_05842"
    INDEX 01 00:53:15
  TRACK 43 AUDIO
    TITLE "0:"
    INDEX 01 00:55:65
  TRACK 44 AUDIO
    TITLE "7:cjc057_05843"
    INDEX 01 00:56:71
  TRACK 45 AUDIO
    TITLE "0:"
    INDEX 01 00:58:20
  TRACK 46 AUDIO
    TITLE "8:cjc057_05844"
    INDEX 01 00:58:48
  TRACK 47 AUDIO
    TITLE "0:"
    INDEX 01 01:00:00
  TRACK 48 AUDIO
    TITLE "9:cjc057_05845"
    INDEX 01 01:00:43
  TRACK 49 AUDIO
    TITLE "0:"
    INDEX 01 01:03:14
  TRACK 50 AUDIO
    TITLE "7:cjc057_05846"
    INDEX 01 01:04:21
  TRACK 51 AUDIO
    TITLE "0:"
    INDEX 01 01:05:48
  TRACK 52 AUDIO
    TITLE "8:cjc057_05847"
    INDEX 01 01:06:04
  TRACK 53 AUDIO
    TITLE "0:"
    INDEX 01 01:07:19
  TRACK 54 AUDIO
    TITLE "9:cjc057_05848"
    INDEX 01 01:07:59
  TRACK 55 AUDIO
    TITLE "0:"
    INDEX 01 01:10:71
  TRACK 56 AUDIO
    TITLE "7:cjc057_05849"
    INDEX 01 01:12:03
  TRACK 57 AUDIO
    TITLE "0:"
    INDEX 01 01:13:30
  TRACK 58 AUDIO
    TITLE "8:cjc057_05850"
    INDEX 01 01:13:59
  TRACK 59 AUDIO
    TITLE "0:"
    INDEX 01 01:14:72
  TRACK 60 AUDIO
    TITLE "9:cjc057_05851"
    INDEX 01 01:15:39
  TRACK 61 AUDIO
    TITLE "0:"
    INDEX 01 01:18:39
  TRACK 62 AUDIO
    TITLE "7:cjc057_05852"
    INDEX 01 01:19:42
  TRACK 63 AUDIO
    TITLE "0:"
    INDEX 01 01:20:71
  TRACK 64 AUDIO
    TITLE "8:cjc057_05853"
    INDEX 01 01:21:27
  TRACK 65 AUDIO
    TITLE "0:"
    INDEX 01 01:23:71
  TRACK 66 AUDIO
    TITLE "9:cjc057_05854"
    INDEX 01 01:24:36
  TRACK 67 AUDIO
    TITLE "0:"
    INDEX 01 01:28:12
